<svg viewBox="0 0 330 200" xmlns="http://www.w3.org/2000/svg"><g><g><g><g><g><line x1="41.171875" y1="177" x2="36.171875" y2="177" style="visibility: inherit;" fill="rgb(0, 0, 0)" stroke="rgb(204, 204, 204)" stroke-width="1px"></line><line x1="41.171875" y1="154.875" x2="36.171875" y2="154.875" style="visibility: inherit;" fill="rgb(0, 0, 0)" stroke="rgb(204, 204, 204)" stroke-width="1px"></line><line x1="41.171875" y1="132.75" x2="36.171875" y2="132.75" style="visibility: inherit;" fill="rgb(0, 0, 0)" stroke="rgb(204, 204, 204)" stroke-width="1px"></line><line x1="41.171875" y1="110.625" x2="36.171875" y2="110.625" style="visibility: inherit;" fill="rgb(0, 0, 0)" stroke="rgb(204, 204, 204)" stroke-width="1px"></line><line x1="41.171875" y1="88.5" x2="36.171875" y2="88.5" style="visibility: inherit;" fill="rgb(0, 0, 0)" stroke="rgb(204, 204, 204)" stroke-width="1px"></line><line x1="41.171875" y1="66.37500000000001" x2="36.171875" y2="66.37500000000001" style="visibility: inherit;" fill="rgb(0, 0, 0)" stroke="rgb(204, 204, 204)" stroke-width="1px"></line><line x1="41.171875" y1="44.24999999999998" x2="36.171875" y2="44.24999999999998" style="visibility: inherit;" fill="rgb(0, 0, 0)" stroke="rgb(204, 204, 204)" stroke-width="1px"></line><line x1="41.171875" y1="22.12500000000002" x2="36.171875" y2="22.12500000000002" style="visibility: inherit;" fill="rgb(0, 0, 0)" stroke="rgb(204, 204, 204)" stroke-width="1px"></line><line x1="41.171875" y1="0" x2="36.171875" y2="0" style="visibility: inherit;" fill="rgb(0, 0, 0)" stroke="rgb(204, 204, 204)" stroke-width="1px"></line></g><g transform="translate(31.171875, 0)"><text x="0" y="177" dx="0em" dy="0.3em" style="text-anchor: end; visibility: hidden; font-family: Roboto, sans-serif; font-size: 12px; font-weight: 200;" fill="rgb(33, 33, 33)" stroke="none" stroke-width="1px">0.4</text><text x="0" y="154.875" dx="0em" dy="0.3em" style="text-anchor: end; visibility: inherit; font-family: Roboto, sans-serif; font-size: 12px; font-weight: 200;" fill="rgb(33, 33, 33)" stroke="none" stroke-width="1px">0.6</text><text x="0" y="132.75" dx="0em" dy="0.3em" style="text-anchor: end; visibility: hidden; font-family: Roboto, sans-serif; font-size: 12px; font-weight: 200;" fill="rgb(33, 33, 33)" stroke="none" stroke-width="1px">0.8</text><text x="0" y="110.625" dx="0em" dy="0.3em" style="text-anchor: end; visibility: inherit; font-family: Roboto, sans-serif; font-size: 12px; font-weight: 200;" fill="rgb(33, 33, 33)" stroke="none" stroke-width="1px">1</text><text x="0" y="88.5" dx="0em" dy="0.3em" style="text-anchor: end; visibility: hidden; font-family: Roboto, sans-serif; font-size: 12px; font-weight: 200;" fill="rgb(33, 33, 33)" stroke="none" stroke-width="1px">1.2</text><text x="0" y="66.37500000000001" dx="0em" dy="0.3em" style="text-anchor: end; visibility: inherit; font-family: Roboto, sans-serif; font-size: 12px; font-weight: 200;" fill="rgb(33, 33, 33)" stroke="none" stroke-width="1px">1.4</text><text x="0" y="44.24999999999998" dx="0em" dy="0.3em" style="text-anchor: end; visibility: hidden; font-family: Roboto, sans-serif; font-size: 12px; font-weight: 200;" fill="rgb(33, 33, 33)" stroke="none" stroke-width="1px">1.6</text><text x="0" y="22.12500000000002" dx="0em" dy="0.3em" style="text-anchor: end; visibility: inherit; font-family: Roboto, sans-serif; font-size: 12px; font-weight: 200;" fill="rgb(33, 33, 33)" stroke="none" stroke-width="1px">1.8</text><text x="0" y="0" dx="0em" dy="0.3em" style="text-anchor: end; visibility: hidden; font-family: Roboto, sans-serif; font-size: 12px; font-weight: 200;" fill="rgb(33, 33, 33)" stroke="none" stroke-width="1px">2</text></g><line x1="41.171875" y1="0" x2="41.171875" y2="177" fill="rgb(0, 0, 0)" stroke="rgb(204, 204, 204)" stroke-width="1px"></line></g></g><g transform="translate(41, 0)" clip-path="url(#clip_0)"><clipPath id="clip_0"><rect width="288" height="177"></rect></clipPath><g><g><g><line x1="0" y1="0" x2="0" y2="177" fill="rgb(0, 0, 0)" stroke="rgb(66, 66, 66)" stroke-width="1px" opacity="0.25"></line><line x1="22.217548076923077" y1="0" x2="22.217548076923077" y2="177" fill="rgb(0, 0, 0)" stroke="rgb(66, 66, 66)" stroke-width="1px" opacity="0.25"></line><line x1="44.43509615384615" y1="0" x2="44.43509615384615" y2="177" fill="rgb(0, 0, 0)" stroke="rgb(66, 66, 66)" stroke-width="1px" opacity="0.25"></line><line x1="66.65264423076924" y1="0" x2="66.65264423076924" y2="177" fill="rgb(0, 0, 0)" stroke="rgb(66, 66, 66)" stroke-width="1px" opacity="0.25"></line><line x1="88.8701923076923" y1="0" x2="88.8701923076923" y2="177" fill="rgb(0, 0, 0)" stroke="rgb(66, 66, 66)" stroke-width="1px" opacity="0.25"></line><line x1="111.08774038461539" y1="0" x2="111.08774038461539" y2="177" fill="rgb(0, 0, 0)" stroke="rgb(66, 66, 66)" stroke-width="1px" opacity="0.25"></line><line x1="133.30528846153848" y1="0" x2="133.30528846153848" y2="177" fill="rgb(0, 0, 0)" stroke="rgb(66, 66, 66)" stroke-width="1px" opacity="0.25"></line><line x1="155.52283653846152" y1="0" x2="155.52283653846152" y2="177" fill="rgb(0, 0, 0)" stroke="rgb(66, 66, 66)" stroke-width="1px" opacity="0.25"></line><line x1="177.7403846153846" y1="0" x2="177.7403846153846" y2="177" fill="rgb(0, 0, 0)" stroke="rgb(66, 66, 66)" stroke-width="1px" opacity="0.25"></line><line x1="199.95793269230768" y1="0" x2="199.95793269230768" y2="177" fill="rgb(0, 0, 0)" stroke="rgb(66, 66, 66)" stroke-width="1px" opacity="0.25"></line><line x1="222.17548076923077" y1="0" x2="222.17548076923077" y2="177" fill="rgb(0, 0, 0)" stroke="rgb(66, 66, 66)" stroke-width="1px" opacity="0.25"></line><line x1="244.39302884615384" y1="0" x2="244.39302884615384" y2="177" fill="rgb(0, 0, 0)" stroke="rgb(66, 66, 66)" stroke-width="1px" opacity="0.25"></line><line x1="266.61057692307696" y1="0" x2="266.61057692307696" y2="177" fill="rgb(0, 0, 0)" stroke="rgb(66, 66, 66)" stroke-width="1px" opacity="0.25"></line><line x1="288.828125" y1="0" x2="288.828125" y2="177" fill="rgb(0, 0, 0)" stroke="rgb(66, 66, 66)" stroke-width="1px" opacity="0.25"></line></g><g><line x1="0" y1="177" x2="288.828125" y2="177" fill="rgb(0, 0, 0)" stroke="rgb(66, 66, 66)" stroke-width="1px" opacity="0.25"></line><line x1="0" y1="154.875" x2="288.828125" y2="154.875" fill="rgb(0, 0, 0)" stroke="rgb(66, 66, 66)" stroke-width="1px" opacity="0.25"></line><line x1="0" y1="132.75" x2="288.828125" y2="132.75" fill="rgb(0, 0, 0)" stroke="rgb(66, 66, 66)" stroke-width="1px" opacity="0.25"></line><line x1="0" y1="110.625" x2="288.828125" y2="110.625" fill="rgb(0, 0, 0)" stroke="rgb(66, 66, 66)" stroke-width="1px" opacity="0.25"></line><line x1="0" y1="88.5" x2="288.828125" y2="88.5" fill="rgb(0, 0, 0)" stroke="rgb(66, 66, 66)" stroke-width="1px" opacity="0.25"></line><line x1="0" y1="66.37500000000001" x2="288.828125" y2="66.37500000000001" fill="rgb(0, 0, 0)" stroke="rgb(66, 66, 66)" stroke-width="1px" opacity="0.25"></line><line x1="0" y1="44.24999999999998" x2="288.828125" y2="44.24999999999998" fill="rgb(0, 0, 0)" stroke="rgb(66, 66, 66)" stroke-width="1px" opacity="0.25"></line><line x1="0" y1="22.12500000000002" x2="288.828125" y2="22.12500000000002" fill="rgb(0, 0, 0)" stroke="rgb(66, 66, 66)" stroke-width="1px" opacity="0.25"></line><line x1="0" y1="0" x2="288.828125" y2="0" fill="rgb(0, 0, 0)" stroke="rgb(66, 66, 66)" stroke-width="1px" opacity="0.25"></line></g></g></g><g><g><line x1="0" y1="221.25" x2="288.828125" y2="221.25" fill="rgb(0, 0, 0)" stroke="rgb(153, 153, 153)" stroke-width="1.5px"></line></g></g><g><g><line x1="22.217548076923077" y1="0" x2="22.217548076923077" y2="177" fill="rgb(0, 0, 0)" stroke="rgb(153, 153, 153)" stroke-width="1.5px"></line></g></g><g><g><g><g><g><path stroke="rgb(255, 112, 67)" stroke-width="2px" d="M29.993689903846157,-8.663514973725984L31.10456730769231,0.4182654108076306L32.21544471153846,7.415228262879268L33.32632211538462,7.776949597736209L34.437199519230774,4.826841412398963L35.54807692307693,15.162019006053896L36.65895432692307,24.88449789288848L37.76983173076923,26.843314225400118L38.88070913461538,24.467430868312274L39.99158653846154,25.824703193057474L41.10246394230769,29.884853140563557L42.21334134615385,19.59720839329014L43.32421875,24.171253391361418L44.43509615384615,17.67898390377033L45.54597355769231,30.307924147589738L46.65685096153847,41.13553118486202L47.76772836538461,34.73808205422795L48.878605769230774,31.29984607105156L49.98948317307692,46.957331050210236L51.10036057692308,47.169043901366706L52.211237980769226,41.89792021011597L53.32211538461539,46.34181479656975L54.43299278846154,46.115934020764065L55.54387019230769,55.99113919091513L56.65474759615385,54.023165845614386L57.765625,60.00608497417335L58.87650240384615,59.591026456541705L59.987379807692314,58.67997745132087L61.09825721153846,53.060037513059655L62.20913461538462,49.15194785705439L63.32001201923077,58.285903308361014L64.43088942307692,66.97181110243791L65.54176682692308,64.69818889386029L66.65264423076924,62.93232875401104L67.76352163461539,62.108716441532984L68.87439903846155,59.20359997212617L69.9852764423077,71.13830673001927L71.09615384615385,80.81887696733529L72.20703125,75.59975045597217L73.31790865384615,71.35802187103793L74.4287860576923,72.11166541328132L75.53966346153847,63.15694541046838L76.65054086538461,65.26527652331937L77.76141826923076,64.20588376633712L78.87229567307692,83.23477458970471L79.98317307692308,81.94890393028317L81.09405048076923,83.14045052653553L82.20492788461539,76.60880566194568L83.31580528846153,82.44154179427342L84.4266826923077,85.54085233410305L85.53756009615385,87.17399825811488L86.6484375,86.36864799356509L87.75931490384615,81.74772970733635L88.8701923076923,67.99501638327527L89.98106971153847,80.02042013832657L91.09194711538461,86.03167804139106L92.20282451923076,77.78792525563975L93.31370192307693,84.1826730682513L94.42457932692308,68.02001888835787L95.53545673076923,80.71473229100921L96.64633413461537,90.87869964939729L97.75721153846155,92.17172433675752L98.8680889423077,95.52949881399532L99.97896634615384,103.9881539395145L101.08984375,92.93414086405583L102.20072115384616,101.2070838529119L103.3115985576923,96.59741141904883L104.42247596153845,106.32024939959942L105.53335336538461,97.95705116454184L106.64423076923077,91.23846338190685L107.75510817307692,102.47476995586187L108.86598557692308,95.22075212358735L109.97686298076923,84.76699987864079L111.08774038461539,90.99951568135967L112.19861778846155,98.5326706939301L113.3094951923077,91.05869719823369L114.42037259615384,87.39796387815575L115.53125,92.3712186972147L116.64212740384616,90.18306016682659L117.7530048076923,102.12457193290636L118.86388221153845,95.9814990958896L119.97475961538463,83.38970651634496L121.08563701923077,92.34480369334197L122.19651442307692,89.95632677224145L123.30739182692307,95.55635484425345L124.41826923076924,101.71973411660265L125.52914663461539,100.25318297398609L126.64002403846153,109.27010935635876L127.7509014423077,96.7889178519935L128.86177884615384,96.32214470061605L129.97265625,97.85258065672484L131.08353365384616,106.42453249401905L132.1944110576923,108.53887136940395L133.30528846153848,112.00008579292438L134.4161658653846,112.25001217841233L135.52704326923077,119.1192691887565L136.6379206730769,120.10148496122048L137.7487980769231,109.0223185163193L138.85967548076923,117.11715581664164L139.9705528846154,118.78558039753865L141.08143028846155,129.43720722251675L142.1923076923077,130.39480587275946L143.30318509615384,127.47207492847517L144.4140625,116.7339109197812L145.52493990384616,120.0181751141284L146.6358173076923,116.5358069949945L147.74669471153845,108.23397922000888L148.8575721153846,119.62622149277689L149.96844951923077,113.25333478146175L151.07932692307693,116.38835778590071L152.1902043269231,113.45008719418065L153.30108173076923,115.59924975605975L154.4119591346154,116.42300865395173L155.52283653846152,122.24024864341796L156.63371394230768,118.99398414674985L157.74459134615384,118.36862588455432L158.85546875,121.12819966393802L159.96634615384616,126.05559283028899L161.07722355769232,129.60522746164116L162.18810096153845,132.58499714802812L163.2989783653846,128.35775065762468L164.40985576923077,129.61799175049464L165.5207331730769,118.41408536139488L166.63161057692307,115.12306764902686L167.74248798076925,129.16972325850733L168.8533653846154,131.78455684548146L169.96424278846155,125.13678590336757L171.0751201923077,131.8451151840646L172.18599759615384,127.50172179000134L173.296875,106.9218794468436L174.40775240384613,119.4079295971032L175.5186298076923,117.47290128040528L176.62950721153848,128.3538483444942L177.7403846153846,127.02145267212946L178.85126201923077,119.96292715480661L179.96213942307693,125.28745855516632L181.07301682692307,125.32711151615645L182.18389423076923,123.34469262287537L183.2947716346154,124.14142537728262L184.40564903846152,116.95949222812241L185.5165264423077,122.05971772175543L186.62740384615387,111.15186109960979L187.73828125,128.01368996394223L188.84915865384616,124.5399481051716L189.9600360576923,127.12622152230459L191.07091346153845,123.83827897287199L192.1817908653846,134.92495328114504L193.29266826923075,128.14741006449506L194.40354567307693,125.42080288204934L195.5144230769231,124.1472107325398L196.62530048076923,128.06816201832316L197.7361778846154,120.21010223881258L198.84705528846155,115.12121006164463L199.95793269230768,123.86932468005126L201.06881009615384,133.3894754087216L202.1796875,126.15107608647862L203.29056490384616,131.5984412003262L204.40144230769232,135.53725878707783L205.51231971153848,127.88229052908551L206.6231971153846,129.33761879615386L207.73407451923077,125.87880523391009L208.8449519230769,131.64270312420987L209.95582932692307,138.3764070024041L211.06670673076923,117.53385354578185L212.1775841346154,129.6875686615687L213.28846153846155,138.13393850147614L214.3993389423077,128.93543759894305L215.51021634615384,122.94972540385685L216.62109375,134.83584519593217L217.73197115384616,132.66997511010348L218.8428485576923,130.698147623664L219.95372596153845,131.03723469908587L221.0646033653846,136.6445401521656L222.17548076923077,128.76566198242506L223.28635817307693,135.86549540920734L224.3972355769231,130.0795852724533L225.50811298076923,130.00151183210735L226.6189903846154,142.28665456773595L227.72986778846152,142.82028405727002L228.84074519230768,147.34617004609737L229.95162259615384,143.86165936181922L231.0625,141.42858363324393L232.17337740384616,147.85390122016662L233.28425480769232,144.46888325083492L234.39513221153845,142.50676938872476L235.5060096153846,155.30594619501198L236.61688701923077,150.5619915121112L237.7277644230769,139.89292763431752L238.83864182692307,143.71278856849602L239.94951923076925,136.8673837164398L241.0603966346154,141.3512559222791L242.17127403846155,133.73073403463445L243.2821514423077,134.84334252432393L244.39302884615384,132.70323022994643L245.50390625,131.51986281450536L246.61478365384613,123.09292581901518L247.7256610576923,136.11544242337683L248.83653846153848,143.6971815874299L249.9474158653846,147.7360075533462L251.05829326923077,151.3325579059167L252.16917067307693,148.55903852534556L253.28004807692307,154.7837296787039L254.39092548076923,153.19584457058522L255.5018028846154,137.4023894696165L256.61268028846155,138.87979775540407L257.7235576923077,140.47118201775774L258.83443509615387,138.57228697790757L259.9453125,137.43299742909704L261.05618990384613,145.10149641556998L262.1670673076923,148.90622211231863L263.27794471153845,140.56528547545716L264.3888221153846,140.59893930936124L265.4996995192308,148.271249920036L266.61057692307696,152.25110887879467L267.7214543269231,142.4997177832981L268.8323317307692,151.90657173029544L269.9432091346154,160.2913965399978L271.05408653846155,147.79543416892992L272.1649639423077,137.7036616933078L273.2758413461538,155.90026243667188L274.38671875,154.87253701174487L275.4975961538462,156.69021122446196L276.6084735576923,147.1875227111014L277.71935096153845,156.31562205358935L278.83022836538464,155.22380842092392L279.9411057692308,150.11606494082662L281.0519831730769,143.0168530165771L282.1628605769231,143.76848614630813" style="fill: none;" fill="none"></path></g></g></g></g><g opacity="0.2"><g><g><g><path stroke="rgb(255, 112, 67)" stroke-width="2px" d="M28.8828125,-6.552275866270065L29.993689903846157,0.13132140040397644L31.10456730769231,13.659588396549225L32.21544471153846,17.734389379620552L33.32632211538462,8.314063623547554L34.437199519230774,0.42843639850616455L35.54807692307693,30.608541816473007L36.65895432692307,39.43647064268589L37.76983173076923,29.777701199054718L38.88070913461538,20.906398594379425L39.99158653846154,27.859654426574707L41.10246394230769,35.97335994243622L42.21334134615385,4.16835330426693L43.32421875,31.03162407875061L44.43509615384615,7.9411730915308L45.54597355769231,49.25064191222191L46.65685096153847,57.3765854537487L47.76772836538461,25.1420346647501L48.878605769230774,26.14253282546997L49.98948317307692,70.4434472322464L51.10036057692308,47.486612275242805L52.211237980769226,33.99124816060066L53.32211538461539,53.00764985382557L54.43299278846154,45.77711306512356L55.54387019230769,70.80394148826599L56.65474759615385,51.071206480264664L57.765625,68.98046247661114L58.87650240384615,58.96843872964382L59.987379807692314,57.31340400874615L61.09825721153846,44.63012784719467L62.20913461538462,43.289813473820686L63.32001201923077,71.98683634400368L64.43088942307692,80.0006727129221L65.54176682692308,61.287755593657494L66.65264423076924,60.28353855013847L67.76352163461539,60.87329797446728L68.87439903846155,54.84592527151108L69.9852764423077,89.04036685824394L71.09615384615385,95.33973231911659L72.20703125,67.77106069028378L73.31790865384615,64.99542899429798L74.4287860576923,73.24213072657585L75.53966346153847,49.72486540675163L76.65054086538461,68.42777319252491L77.76141826923076,62.616794630885124L78.87229567307692,111.77811082452536L79.98317307692308,80.0200979411602L81.09405048076923,84.92777042090893L82.20492788461539,66.81133836507797L83.31580528846153,91.19064599275589L84.4266826923077,90.1898181438446L85.53756009615385,89.62371714413166L86.6484375,85.16062259674072L87.75931490384615,74.81635227799416L88.8701923076923,47.365946397185326L89.98106971153847,98.05852577090263L91.09194711538461,95.04856489598751L92.20282451923076,65.42229607701302L93.31370192307693,93.7747947871685L94.42457932692308,43.776037618517876L95.53545673076923,99.75680239498615L96.64633413461537,106.1246506869793L97.75721153846155,94.11126136779785L98.8680889423077,100.56616052985191L99.97896634615384,116.67613662779331L101.08984375,76.35312125086784L102.20072115384616,113.61649833619595L103.3115985576923,89.68290276825428L104.42247596153845,120.90450637042522L105.53335336538461,85.41225381195545L106.64423076923077,81.1605817079544L107.75510817307692,119.3292298167944L108.86598557692308,84.33972537517548L109.97686298076923,69.08637151122093L111.08774038461539,100.34828938543797L112.19861778846155,109.83240321278572L113.3094951923077,79.84773695468903L114.42037259615384,81.90686389803886L115.53125,99.83110092580318L116.64212740384616,86.90082237124443L117.7530048076923,120.036839582026L118.86388221153845,86.76688984036446L119.97475961538463,64.50201764702797L121.08563701923077,105.77744945883751L122.19651442307692,86.37361139059067L123.30739182692307,103.95639695227146L124.41826923076924,110.96480302512646L125.52914663461539,98.05335626006126L126.64002403846153,122.79549892991781L127.7509014423077,78.06713059544563L128.86177884615384,95.62198497354984L129.97265625,100.14823459088802L131.08353365384616,119.28246024996042L132.1944110576923,111.71037968248129L133.30528846153848,117.19190742820501L134.4161658653846,112.62490175664425L135.52704326923077,129.42315470427275L136.6379206730769,121.57480861991644L137.7487980769231,92.40356884896755L138.85967548076923,129.25941176712513L139.9705528846154,121.28821726888418L141.08143028846155,145.41464745998383L142.1923076923077,131.83120384812355L143.30318509615384,123.08797851204872L144.4140625,100.62666490674019L145.52493990384616,124.94457140564919L146.6358173076923,111.31225481629372L147.74669471153845,95.7812375575304L148.8575721153846,136.7145849019289L149.96844951923077,103.69400471448898L151.07932692307693,121.09089229255915L152.1902043269231,109.04268130660057L153.30108173076923,118.82299359887838L154.4119591346154,117.65864700078964L155.52283653846152,130.96610862761736L156.63371394230768,114.1245874017477L157.74459134615384,117.430588491261L158.85546875,125.26756033301353L159.96634615384616,133.4466825798154L161.07722355769232,134.92967940866947L162.18810096153845,137.0546516776085L163.2989783653846,122.01688092201948L164.40985576923077,131.5083533897996L165.5207331730769,101.60822577774525L166.63161057692307,110.18654108047485L167.74248798076925,150.23970667272806L168.8533653846154,135.7068072259426L169.96424278846155,115.1651294901967L171.0751201923077,141.90760910511017L172.18599759615384,120.98663169890642L173.296875,76.05211593210697L174.40775240384613,138.1370048224926L175.5186298076923,114.57035880535841L176.62950721153848,144.67526894062757L177.7403846153846,125.02285916358232L178.85126201923077,109.37513887882233L179.96213942307693,133.27425565570593L181.07301682692307,125.3865909576416L182.18389423076923,120.37106428295374L183.2947716346154,125.33652450889349L184.40564903846152,106.18659250438213L185.5165264423077,129.71005596220493L186.62740384615387,94.79007616639137L187.73828125,153.30643326044083L188.84915865384616,119.32933531701565L189.9600360576923,131.00563164800406L191.07091346153845,118.90636514872313L192.1817908653846,151.5549647435546L193.29266826923075,117.98109523952007L194.40354567307693,121.3308921083808L195.5144230769231,122.23682250827551L196.62530048076923,133.94958894699812L197.7361778846154,108.4230125695467L198.84705528846155,107.48787179589272L199.95793269230768,136.99149660766125L201.06881009615384,147.6697015017271L202.1796875,115.29347710311413L203.29056490384616,139.76948887109756L204.40144230769232,141.44548516720533L205.51231971153848,116.399838142097L206.6231971153846,131.52061119675636L207.73407451923077,120.69058489054441L208.8449519230769,140.28854995965958L209.95582932692307,148.47696281969547L211.06670673076923,86.27002336084843L212.1775841346154,147.91814133524895L213.28846153846155,150.80349326133728L214.3993389423077,115.13768624514341L215.51021634615384,113.97115711122751L216.62109375,152.66502488404512L217.73197115384616,129.42116998136044L218.8428485576923,127.74040639400482L219.95372596153845,131.54586531221867L221.0646033653846,145.0554983317852L222.17548076923077,116.9473447278142L223.28635817307693,146.51524554938078L224.3972355769231,121.40072006732225L225.50811298076923,129.88440167158842L226.6189903846154,160.71436867117882L227.72986778846152,143.62072829157114L228.84074519230768,154.13499902933836L229.95162259615384,138.634893335402L231.0625,137.77897004038095L232.17337740384616,157.49187760055065L233.28425480769232,139.39135629683733L234.39513221153845,139.5635985955596L235.5060096153846,174.5047114044428L236.61688701923077,143.44605948776007L237.7277644230769,123.88933181762695L238.83864182692307,149.44257996976376L239.94951923076925,126.59927643835545L241.0603966346154,148.0770642310381L242.17127403846155,122.29995120316744L243.2821514423077,136.5122552588582L244.39302884615384,129.49306178838015L245.50390625,129.74481169134378L246.61478365384613,110.45252032577991L247.7256610576923,155.64921732991934L248.83653846153848,155.06979033350945L249.9474158653846,153.79424650222063L251.05829326923077,156.7273834347725L252.16917067307693,144.39875945448875L253.28004807692307,164.12076640874147L254.39092548076923,150.8140169084072L255.5018028846154,113.7122068181634L256.61268028846155,141.09591018408537L257.7235576923077,142.85825841128826L258.83443509615387,135.7239444181323L259.9453125,135.7240631058812L261.05618990384613,156.6042448952794L262.1670673076923,154.61331065744162L263.27794471153845,128.05388052016497L264.3888221153846,140.64942006021738L265.4996995192308,159.77971583604813L266.61057692307696,158.22089731693268L267.7214543269231,127.87263114005327L268.8323317307692,166.0168526507914L269.9432091346154,172.8686337545514L271.05408653846155,129.05149061232805L272.1649639423077,122.56600297987461L273.2758413461538,183.195163551718L274.38671875,153.33094887435436L275.4975961538462,159.41672254353762L276.6084735576923,132.93348994106054L277.71935096153845,170.0077710673213L278.83022836538464,153.58608797192574L279.9411057692308,142.4544497206807L281.0519831730769,132.36803513020277L282.1628605769231,144.8959358409047" style="fill: none;" fill="none"></path></g></g></g></g></g></g><g transform="translate(41, 177)" clip-path="url(#clip_1)"><clipPath id="clip_1"><rect width="288" height="23"></rect></clipPath><g><g><line x1="0" y1="0" x2="0" y2="5" style="visibility: inherit;" fill="rgb(0, 0, 0)" stroke="rgb(204, 204, 204)" stroke-width="1px"></line><line x1="22.217548076923077" y1="0" x2="22.217548076923077" y2="5" style="visibility: inherit;" fill="rgb(0, 0, 0)" stroke="rgb(204, 204, 204)" stroke-width="1px"></line><line x1="44.43509615384615" y1="0" x2="44.43509615384615" y2="5" style="visibility: inherit;" fill="rgb(0, 0, 0)" stroke="rgb(204, 204, 204)" stroke-width="1px"></line><line x1="66.65264423076924" y1="0" x2="66.65264423076924" y2="5" style="visibility: inherit;" fill="rgb(0, 0, 0)" stroke="rgb(204, 204, 204)" stroke-width="1px"></line><line x1="88.8701923076923" y1="0" x2="88.8701923076923" y2="5" style="visibility: inherit;" fill="rgb(0, 0, 0)" stroke="rgb(204, 204, 204)" stroke-width="1px"></line><line x1="111.08774038461539" y1="0" x2="111.08774038461539" y2="5" style="visibility: inherit;" fill="rgb(0, 0, 0)" stroke="rgb(204, 204, 204)" stroke-width="1px"></line><line x1="133.30528846153848" y1="0" x2="133.30528846153848" y2="5" style="visibility: inherit;" fill="rgb(0, 0, 0)" stroke="rgb(204, 204, 204)" stroke-width="1px"></line><line x1="155.52283653846152" y1="0" x2="155.52283653846152" y2="5" style="visibility: inherit;" fill="rgb(0, 0, 0)" stroke="rgb(204, 204, 204)" stroke-width="1px"></line><line x1="177.7403846153846" y1="0" x2="177.7403846153846" y2="5" style="visibility: inherit;" fill="rgb(0, 0, 0)" stroke="rgb(204, 204, 204)" stroke-width="1px"></line><line x1="199.95793269230768" y1="0" x2="199.95793269230768" y2="5" style="visibility: inherit;" fill="rgb(0, 0, 0)" stroke="rgb(204, 204, 204)" stroke-width="1px"></line><line x1="222.17548076923077" y1="0" x2="222.17548076923077" y2="5" style="visibility: inherit;" fill="rgb(0, 0, 0)" stroke="rgb(204, 204, 204)" stroke-width="1px"></line><line x1="244.39302884615384" y1="0" x2="244.39302884615384" y2="5" style="visibility: inherit;" fill="rgb(0, 0, 0)" stroke="rgb(204, 204, 204)" stroke-width="1px"></line><line x1="266.61057692307696" y1="0" x2="266.61057692307696" y2="5" style="visibility: inherit;" fill="rgb(0, 0, 0)" stroke="rgb(204, 204, 204)" stroke-width="1px"></line><line x1="288.828125" y1="0" x2="288.828125" y2="5" style="visibility: inherit;" fill="rgb(0, 0, 0)" stroke="rgb(204, 204, 204)" stroke-width="1px"></line></g><g transform="translate(0, 8)"><text x="0" y="0" dx="0em" dy="0.95em" style="text-anchor: middle; visibility: hidden; font-family: Roboto, sans-serif; font-size: 12px; font-weight: 200;" fill="rgb(33, 33, 33)" stroke="none" stroke-width="1px">-2k</text><text x="22.217548076923077" y="0" dx="0em" dy="0.95em" style="text-anchor: middle; visibility: inherit; font-family: Roboto, sans-serif; font-size: 12px; font-weight: 200;" fill="rgb(33, 33, 33)" stroke="none" stroke-width="1px">0</text><text x="44.43509615384615" y="0" dx="0em" dy="0.95em" style="text-anchor: middle; visibility: hidden; font-family: Roboto, sans-serif; font-size: 12px; font-weight: 200;" fill="rgb(33, 33, 33)" stroke="none" stroke-width="1px">2k</text><text x="66.65264423076924" y="0" dx="0em" dy="0.95em" style="text-anchor: middle; visibility: inherit; font-family: Roboto, sans-serif; font-size: 12px; font-weight: 200;" fill="rgb(33, 33, 33)" stroke="none" stroke-width="1px">4k</text><text x="88.8701923076923" y="0" dx="0em" dy="0.95em" style="text-anchor: middle; visibility: hidden; font-family: Roboto, sans-serif; font-size: 12px; font-weight: 200;" fill="rgb(33, 33, 33)" stroke="none" stroke-width="1px">6k</text><text x="111.08774038461539" y="0" dx="0em" dy="0.95em" style="text-anchor: middle; visibility: inherit; font-family: Roboto, sans-serif; font-size: 12px; font-weight: 200;" fill="rgb(33, 33, 33)" stroke="none" stroke-width="1px">8k</text><text x="133.30528846153848" y="0" dx="0em" dy="0.95em" style="text-anchor: middle; visibility: hidden; font-family: Roboto, sans-serif; font-size: 12px; font-weight: 200;" fill="rgb(33, 33, 33)" stroke="none" stroke-width="1px">10k</text><text x="155.52283653846152" y="0" dx="0em" dy="0.95em" style="text-anchor: middle; visibility: inherit; font-family: Roboto, sans-serif; font-size: 12px; font-weight: 200;" fill="rgb(33, 33, 33)" stroke="none" stroke-width="1px">12k</text><text x="177.7403846153846" y="0" dx="0em" dy="0.95em" style="text-anchor: middle; visibility: hidden; font-family: Roboto, sans-serif; font-size: 12px; font-weight: 200;" fill="rgb(33, 33, 33)" stroke="none" stroke-width="1px">14k</text><text x="199.95793269230768" y="0" dx="0em" dy="0.95em" style="text-anchor: middle; visibility: inherit; font-family: Roboto, sans-serif; font-size: 12px; font-weight: 200;" fill="rgb(33, 33, 33)" stroke="none" stroke-width="1px">16k</text><text x="222.17548076923077" y="0" dx="0em" dy="0.95em" style="text-anchor: middle; visibility: hidden; font-family: Roboto, sans-serif; font-size: 12px; font-weight: 200;" fill="rgb(33, 33, 33)" stroke="none" stroke-width="1px">18k</text><text x="244.39302884615384" y="0" dx="0em" dy="0.95em" style="text-anchor: middle; visibility: inherit; font-family: Roboto, sans-serif; font-size: 12px; font-weight: 200;" fill="rgb(33, 33, 33)" stroke="none" stroke-width="1px">20k</text><text x="266.61057692307696" y="0" dx="0em" dy="0.95em" style="text-anchor: middle; visibility: hidden; font-family: Roboto, sans-serif; font-size: 12px; font-weight: 200;" fill="rgb(33, 33, 33)" stroke="none" stroke-width="1px">22k</text><text x="288.828125" y="0" dx="0em" dy="0.95em" style="text-anchor: middle; visibility: hidden; font-family: Roboto, sans-serif; font-size: 12px; font-weight: 200;" fill="rgb(33, 33, 33)" stroke="none" stroke-width="1px">24k</text></g><line x1="0" y1="0" x2="288.828125" y2="0" fill="rgb(0, 0, 0)" stroke="rgb(204, 204, 204)" stroke-width="1px"></line></g></g></g></g></svg>